# xmcd
#
# Track frame offsets: 
#        174
#        14400
#        31041
#        50157
#        71178
#        83150
#        96060
#        111987
#        123348
#        149714
#        162672
#
# Disc length: 2346 seconds
#
# Revision: 2
# Processed by: cddbd v1.5.2PL0 Copyright (c) Steve Scherf et al.
# Submitted via: ExactAudioCopyFreeDBPlugin 1.0
#
DISCID=9f09280b
DTITLE=Various Artist - Blues Legends Disc 3
DYEAR=1996
DGENRE=Blues
TTITLE0=Bukka White - Army Blues
TTITLE1=T-Bone Walker - No Do Right
TTITLE2=Lightning Hopkins - Good Times
TTITLE3=Cissy Houston - Nothing Can Stop Me
TTITLE4=Memphis Slim - My Gal Keeps Me Crying
TTITLE5=Jimmy Reed - Honest I Do
TTITLE6=B.B. King - Evil Child
TTITLE7=John Lee Hooker - Hard Hearted Women
TTITLE8=Jimmy Witherspoon - Trouble In Mind
TTITLE9=John Mayhill - Mexico City
TTITLE10=Screaming Jay Hawkins - Ashes
EXTD=Blues Legends - Various Artists(Disk3)--MasterTone  Records
EXTT0=
EXTT1=
EXTT2=
EXTT3=
EXTT4=
EXTT5=
EXTT6=
EXTT7=
EXTT8=
EXTT9=
EXTT10=
PLAYORDER=
